<svg width="279" height="203" viewBox="0 0 279 203" fill="none" xmlns="http://www.w3.org/2000/svg">
<path d="M69.75 203C50.5159 203 34.0824 196.339 20.4494 183.017C6.81648 169.695 0 153.413 0 134.17C0 117.677 4.96705 102.98 14.9011 90.0812C24.8352 77.1823 37.8341 68.9354 53.8977 65.3406C59.1818 45.8865 69.75 30.1328 85.6023 18.0797C101.455 6.02656 119.42 0 139.5 0C164.23 0 185.207 8.61693 202.434 25.8508C219.66 43.0846 228.273 64.0719 228.273 88.8125C242.857 90.5042 254.957 96.7951 264.574 107.685C274.191 118.575 279 131.316 279 145.906C279 161.766 273.452 175.246 262.355 186.348C251.259 197.449 237.784 203 221.932 203H69.75ZM69.75 177.625H221.932C230.809 177.625 238.312 174.559 244.442 168.427C250.572 162.294 253.636 154.787 253.636 145.906C253.636 137.025 250.572 129.518 244.442 123.386C238.312 117.254 230.809 114.187 221.932 114.187H202.909V88.8125C202.909 71.2615 196.727 56.3008 184.362 43.9305C171.997 31.5602 157.043 25.375 139.5 25.375C121.957 25.375 107.003 31.5602 94.6381 43.9305C82.2733 56.3008 76.0909 71.2615 76.0909 88.8125H69.75C57.4909 88.8125 47.0284 93.1474 38.3625 101.817C29.6966 110.487 25.3636 120.954 25.3636 133.219C25.3636 145.483 29.6966 155.951 38.3625 164.62C47.0284 173.29 57.4909 177.625 69.75 177.625Z" fill="black"/>
</svg>
