<svg width="119" height="105" viewBox="0 0 119 105" fill="none" xmlns="http://www.w3.org/2000/svg">
<path d="M59.1667 104.577C57.7861 104.577 56.3809 104.331 54.951 103.838C53.5212 103.344 52.2639 102.556 51.1792 101.471L40.9729 92.1521C30.5201 82.5868 21.0781 73.0955 12.6469 63.6781C4.21563 54.2608 0 43.8819 0 32.5417C0 23.2722 3.10625 15.5313 9.31875 9.31875C15.5313 3.10625 23.2722 0 32.5417 0C37.7681 0 42.6986 1.10938 47.3333 3.32813C51.9681 5.54688 55.9125 8.57917 59.1667 12.425C62.4208 8.57917 66.3653 5.54688 71 3.32813C75.6347 1.10938 80.5653 0 85.7917 0C95.0611 0 102.802 3.10625 109.015 9.31875C115.227 15.5313 118.333 23.2722 118.333 32.5417C118.333 43.8819 114.142 54.2854 105.76 63.7521C97.3785 73.2188 87.8625 82.7347 77.2125 92.3L67.1542 101.471C66.0694 102.556 64.8122 103.344 63.3823 103.838C61.9524 104.331 60.5472 104.577 59.1667 104.577Z" fill="#DE7B7B"/>
</svg>
