<svg width="41" height="36" viewBox="0 0 41 36" fill="none" xmlns="http://www.w3.org/2000/svg">
<path d="M20.5 36C20.0217 36 19.5348 35.9151 19.0394 35.7454C18.544 35.5757 18.1083 35.3041 17.7325 34.9307L14.1962 31.7228C10.5746 28.43 7.30312 25.1627 4.38188 21.9208C1.46062 18.6789 0 15.1061 0 11.2023C0 8.01132 1.07625 5.34653 3.22875 3.20792C5.38125 1.06931 8.06333 0 11.275 0C13.0858 0 14.7942 0.381895 16.4 1.14569C18.0058 1.90948 19.3725 2.95332 20.5 4.27723C21.6275 2.95332 22.9942 1.90948 24.6 1.14569C26.2058 0.381895 27.9142 0 29.725 0C32.9367 0 35.6188 1.06931 37.7712 3.20792C39.9237 5.34653 41 8.01132 41 11.2023C41 15.1061 39.5479 18.6874 36.6437 21.9463C33.7396 25.2051 30.4425 28.4809 26.7525 31.7737L23.2675 34.9307C22.8917 35.3041 22.456 35.5757 21.9606 35.7454C21.4652 35.9151 20.9783 36 20.5 36ZM18.5525 8.35078C17.5617 6.95898 16.5025 5.89816 15.375 5.16832C14.2475 4.43847 12.8808 4.07355 11.275 4.07355C9.225 4.07355 7.51667 4.75248 6.15 6.11033C4.78333 7.46817 4.1 9.16549 4.1 11.2023C4.1 12.9675 4.73208 14.843 5.99625 16.8289C7.26042 18.8147 8.77229 20.7412 10.5319 22.6082C12.2915 24.4752 14.1023 26.2235 15.9644 27.8529C17.8265 29.4823 19.3383 30.8232 20.5 31.8755C21.6617 30.8232 23.1735 29.4823 25.0356 27.8529C26.8977 26.2235 28.7085 24.4752 30.4681 22.6082C32.2277 20.7412 33.7396 18.8147 35.0037 16.8289C36.2679 14.843 36.9 12.9675 36.9 11.2023C36.9 9.16549 36.2167 7.46817 34.85 6.11033C33.4833 4.75248 31.775 4.07355 29.725 4.07355C28.1192 4.07355 26.7525 4.43847 25.625 5.16832C24.4975 5.89816 23.4383 6.95898 22.4475 8.35078C22.2083 8.69024 21.9179 8.94484 21.5763 9.11457C21.2346 9.2843 20.8758 9.36917 20.5 9.36917C20.1242 9.36917 19.7654 9.2843 19.4237 9.11457C19.0821 8.94484 18.7917 8.69024 18.5525 8.35078Z" fill="#DE7B7B"/>
</svg>
