<svg width="212" height="212" viewBox="0 0 212 212" fill="none" xmlns="http://www.w3.org/2000/svg">
<path d="M169.499 180.083C166.501 180.083 163.987 179.069 161.959 177.04C159.93 175.012 158.916 172.498 158.916 169.5C158.916 166.501 159.93 163.988 161.959 161.959C163.987 159.931 166.501 158.916 169.499 158.916C172.498 158.916 175.011 159.931 177.04 161.959C179.068 163.988 180.083 166.501 180.083 169.5C180.083 172.498 179.068 175.012 177.04 177.04C175.011 179.069 172.498 180.083 169.499 180.083ZM53.0827 211.833C50.0841 211.833 47.5705 210.819 45.5421 208.79C43.5136 206.762 42.4993 204.248 42.4993 201.25C42.4993 198.251 43.5136 195.738 45.5421 193.709C47.5705 191.681 50.0841 190.666 53.0827 190.666C56.0813 190.666 58.5948 191.681 60.6233 193.709C62.6518 195.738 63.666 198.251 63.666 201.25C63.666 204.248 62.6518 206.762 60.6233 208.79C58.5948 210.819 56.0813 211.833 53.0827 211.833ZM42.4993 180.083C39.5007 180.083 36.9872 179.069 34.9587 177.04C32.9302 175.012 31.916 172.498 31.916 169.5C31.916 166.501 32.9302 163.988 34.9587 161.959C36.9872 159.931 39.5007 158.916 42.4993 158.916H137.749C140.748 158.916 143.261 159.931 145.29 161.959C147.318 163.988 148.333 166.501 148.333 169.5C148.333 172.498 147.318 175.012 145.29 177.04C143.261 179.069 140.748 180.083 137.749 180.083H42.4993ZM84.8327 211.833C81.8341 211.833 79.3205 210.819 77.2921 208.79C75.2636 206.762 74.2493 204.248 74.2493 201.25C74.2493 198.251 75.2636 195.738 77.2921 193.709C79.3205 191.681 81.8341 190.666 84.8327 190.666H158.916C161.915 190.666 164.428 191.681 166.457 193.709C168.485 195.738 169.499 198.251 169.499 201.25C169.499 204.248 168.485 206.762 166.457 208.79C164.428 210.819 161.915 211.833 158.916 211.833H84.8327ZM58.3743 148.333C42.323 148.333 28.6087 142.645 17.2316 131.268C5.85456 119.89 0.166016 106.176 0.166016 90.1248C0.166016 75.4846 5.01671 62.6964 14.7181 51.7603C24.4195 40.8241 36.4139 34.3859 50.7014 32.4457C56.3459 22.3915 64.0629 14.4981 73.8525 8.76546C83.6421 3.03282 94.3577 0.166504 105.999 0.166504C121.874 0.166504 135.677 5.23768 147.407 15.38C159.136 25.5224 166.236 38.1783 168.706 53.3478C180.876 54.4061 191.107 59.4332 199.397 68.429C207.688 77.4248 211.833 88.1846 211.833 100.708C211.833 113.937 207.202 125.182 197.942 134.443C188.682 143.703 177.437 148.333 164.208 148.333H58.3743ZM58.3743 127.166H164.208C171.616 127.166 177.878 124.609 182.993 119.494C188.108 114.378 190.666 108.117 190.666 100.708C190.666 93.2998 188.108 87.038 182.993 81.9228C177.878 76.8075 171.616 74.2498 164.208 74.2498H148.333V63.6665C148.333 52.0248 144.188 42.0589 135.897 33.7686C127.607 25.4783 117.641 21.3332 105.999 21.3332C97.5327 21.3332 89.8157 23.6262 82.8483 28.2123C75.8809 32.7984 70.6334 38.9721 67.1056 46.7332L64.4598 53.0832H57.8452C47.791 53.4359 39.1921 57.1842 32.0483 64.328C24.9046 71.4717 21.3327 80.0707 21.3327 90.1248C21.3327 100.355 24.9487 109.087 32.1806 116.319C39.4125 123.551 48.1438 127.166 58.3743 127.166Z" fill="black"/>
</svg>
