<svg width="168" height="210" viewBox="0 0 168 210" fill="none" xmlns="http://www.w3.org/2000/svg">
<path d="M110.25 168C114.625 168 118.344 166.469 121.406 163.406C124.469 160.344 126 156.625 126 152.25C126 147.875 124.469 144.156 121.406 141.094C118.344 138.031 114.625 136.5 110.25 136.5C105.875 136.5 102.156 138.031 99.0937 141.094C96.0312 144.156 94.5 147.875 94.5 152.25C94.5 156.625 96.0312 160.344 99.0937 163.406C102.156 166.469 105.875 168 110.25 168ZM57.225 167.475L125.475 99.225L110.775 84.525L42.525 152.775L57.225 167.475ZM57.75 115.5C62.125 115.5 65.8438 113.969 68.9062 110.906C71.9688 107.844 73.5 104.125 73.5 99.75C73.5 95.375 71.9688 91.6562 68.9062 88.5937C65.8438 85.5312 62.125 84 57.75 84C53.375 84 49.6562 85.5312 46.5937 88.5937C43.5312 91.6562 42 95.375 42 99.75C42 104.125 43.5312 107.844 46.5937 110.906C49.6562 113.969 53.375 115.5 57.75 115.5ZM84 210C60.025 210 40.0312 201.775 24.0187 185.325C8.00625 168.875 0 148.4 0 123.9C0 106.4 6.95625 87.3687 20.8687 66.8062C34.7812 46.2437 55.825 23.975 84 0C112.175 23.975 133.219 46.2437 147.131 66.8062C161.044 87.3687 168 106.4 168 123.9C168 148.4 159.994 168.875 143.981 185.325C127.969 201.775 107.975 210 84 210ZM84 189C102.2 189 117.25 182.831 129.15 170.494C141.05 158.156 147 142.625 147 123.9C147 111.125 141.706 96.6875 131.119 80.5875C120.531 64.4875 104.825 46.9 84 27.825C63.175 46.9 47.4687 64.4875 36.8812 80.5875C26.2937 96.6875 21 111.125 21 123.9C21 142.625 26.95 158.156 38.85 170.494C50.75 182.831 65.8 189 84 189Z" fill="white"/>
</svg>
