<svg width="145" height="145" viewBox="0 0 145 145" fill="none" xmlns="http://www.w3.org/2000/svg">
<path d="M65.25 145V114.913L41.6875 138.113L31.5375 127.963L65.25 94.25V79.75H50.75L17.0375 113.463L6.8875 103.312L30.0875 79.75H0V65.25H30.0875L6.8875 41.6875L17.0375 31.5375L50.75 65.25H65.25V50.75L31.5375 17.0375L41.6875 6.8875L65.25 30.0875V0H79.75V30.0875L103.312 6.8875L113.463 17.0375L79.75 50.75V65.25H94.25L127.963 31.5375L138.113 41.6875L114.913 65.25H145V79.75H114.913L138.113 103.312L127.963 113.463L94.25 79.75H79.75V94.25L113.463 127.963L103.312 138.113L79.75 114.913V145H65.25Z" fill="black"/>
</svg>
