<svg width="150" height="151" viewBox="0 0 150 151" fill="none" xmlns="http://www.w3.org/2000/svg">
<path d="M89.625 149.25C87.75 150.25 85.8438 150.406 83.9062 149.719C81.9688 149.031 80.5 147.75 79.5 145.875L68.25 123.375C67.25 121.5 67.0938 119.594 67.7812 117.656C68.4688 115.719 69.75 114.25 71.625 113.25C73.5 112.25 75.4062 112.094 77.3438 112.781C79.2812 113.469 80.75 114.75 81.75 116.625L93 139.125C94 141 94.1562 142.906 93.4688 144.844C92.7812 146.781 91.5 148.25 89.625 149.25ZM134.625 149.25C132.75 150.25 130.844 150.406 128.906 149.719C126.969 149.031 125.5 147.75 124.5 145.875L113.25 123.375C112.25 121.5 112.094 119.594 112.781 117.656C113.469 115.719 114.75 114.25 116.625 113.25C118.5 112.25 120.406 112.094 122.344 112.781C124.281 113.469 125.75 114.75 126.75 116.625L138 139.125C139 141 139.156 142.906 138.469 144.844C137.781 146.781 136.5 148.25 134.625 149.25ZM44.625 149.25C42.75 150.25 40.8438 150.406 38.9062 149.719C36.9688 149.031 35.5 147.75 34.5 145.875L23.25 123.375C22.25 121.5 22.0938 119.594 22.7812 117.656C23.4688 115.719 24.75 114.25 26.625 113.25C28.5 112.25 30.4062 112.094 32.3438 112.781C34.2812 113.469 35.75 114.75 36.75 116.625L48 139.125C49 141 49.1562 142.906 48.4688 144.844C47.7812 146.781 46.5 148.25 44.625 149.25ZM41.25 105C29.875 105 20.1562 100.969 12.0938 92.9062C4.03125 84.8438 0 75.125 0 63.75C0 53.375 3.4375 44.3125 10.3125 36.5625C17.1875 28.8125 25.6875 24.25 35.8125 22.875C39.8125 15.75 45.2812 10.1562 52.2188 6.09375C59.1562 2.03125 66.75 0 75 0C86.25 0 96.0312 3.59375 104.344 10.7812C112.656 17.9688 117.688 26.9375 119.438 37.6875C128.062 38.4375 135.312 42 141.188 48.375C147.062 54.75 150 62.375 150 71.25C150 80.625 146.719 88.5938 140.156 95.1562C133.594 101.719 125.625 105 116.25 105H41.25ZM41.25 90H116.25C121.5 90 125.938 88.1875 129.562 84.5625C133.188 80.9375 135 76.5 135 71.25C135 66 133.188 61.5625 129.562 57.9375C125.938 54.3125 121.5 52.5 116.25 52.5H105V45C105 36.75 102.062 29.6875 96.1875 23.8125C90.3125 17.9375 83.25 15 75 15C69 15 63.5312 16.625 58.5938 19.875C53.6562 23.125 49.9375 27.5 47.4375 33L45.5625 37.5H40.875C33.75 37.75 27.6562 40.4062 22.5938 45.4688C17.5312 50.5312 15 56.625 15 63.75C15 71 17.5625 77.1875 22.6875 82.3125C27.8125 87.4375 34 90 41.25 90Z" fill="black"/>
</svg>
