<svg width="145" height="153" viewBox="0 0 145 153" fill="none" xmlns="http://www.w3.org/2000/svg">
<path d="M76.125 152.25L65.25 141.375L76.125 130.5L87 141.375L76.125 152.25ZM51.1125 141.375L43.5 133.762L64.8875 112.375L72.5 119.988L51.1125 141.375ZM97.875 130.5L87 119.625L97.875 108.75L108.75 119.625L97.875 130.5ZM32.625 130.5L21.75 119.625L32.625 108.75L43.5 119.625L32.625 130.5ZM39.875 101.5C28.8792 101.5 19.4844 97.6031 11.6906 89.8094C3.89688 82.0156 0 72.6208 0 61.625C0 51.5958 3.32292 42.8354 9.96875 35.3438C16.6146 27.8521 24.8313 23.4417 34.6188 22.1125C38.4854 15.225 43.7719 9.81771 50.4781 5.89062C57.1844 1.96354 64.525 0 72.5 0C83.375 0 92.8302 3.47396 100.866 10.4219C108.901 17.3698 113.765 26.0396 115.456 36.4313C123.794 37.1562 130.802 40.6 136.481 46.7625C142.16 52.925 145 60.2958 145 68.875C145 77.9375 141.828 85.6406 135.484 91.9844C129.141 98.3281 121.438 101.5 112.375 101.5H39.875ZM39.875 87H112.375C117.45 87 121.74 85.2479 125.244 81.7438C128.748 78.2396 130.5 73.95 130.5 68.875C130.5 63.8 128.748 59.5104 125.244 56.0063C121.74 52.5021 117.45 50.75 112.375 50.75H101.5V43.5C101.5 35.525 98.6604 28.6979 92.9813 23.0188C87.3021 17.3396 80.475 14.5 72.5 14.5C66.7 14.5 61.4135 16.0708 56.6406 19.2125C51.8677 22.3542 48.2729 26.5833 45.8563 31.9L44.0438 36.25H39.5125C32.625 36.4917 26.7344 39.0594 21.8406 43.9531C16.9469 48.8469 14.5 54.7375 14.5 61.625C14.5 68.6333 16.9771 74.6146 21.9313 79.5688C26.8854 84.5229 32.8667 87 39.875 87Z" fill="black"/>
</svg>
