<svg width="130" height="136" viewBox="0 0 130 136" fill="none" xmlns="http://www.w3.org/2000/svg">
<path d="M29.0625 116.25C26.8021 116.25 24.8915 115.47 23.3307 113.909C21.77 112.348 20.9896 110.437 20.9896 108.177C20.9896 105.917 21.77 104.006 23.3307 102.445C24.8915 100.885 26.8021 100.104 29.0625 100.104C31.3229 100.104 33.2335 100.885 34.7943 102.445C36.355 104.006 37.1354 105.917 37.1354 108.177C37.1354 110.437 36.355 112.348 34.7943 113.909C33.2335 115.47 31.3229 116.25 29.0625 116.25ZM48.4375 135.625C46.1771 135.625 44.2665 134.845 42.7057 133.284C41.145 131.723 40.3646 129.812 40.3646 127.552C40.3646 125.292 41.145 123.381 42.7057 121.82C44.2665 120.26 46.1771 119.479 48.4375 119.479C50.6979 119.479 52.6085 120.26 54.1693 121.82C55.73 123.381 56.5104 125.292 56.5104 127.552C56.5104 129.812 55.73 131.723 54.1693 133.284C52.6085 134.845 50.6979 135.625 48.4375 135.625ZM67.8125 116.25C65.5521 116.25 63.6415 115.47 62.0807 113.909C60.52 112.348 59.7396 110.437 59.7396 108.177C59.7396 105.917 60.52 104.006 62.0807 102.445C63.6415 100.885 65.5521 100.104 67.8125 100.104C70.0729 100.104 71.9835 100.885 73.5443 102.445C75.105 104.006 75.8854 105.917 75.8854 108.177C75.8854 110.437 75.105 112.348 73.5443 113.909C71.9835 115.47 70.0729 116.25 67.8125 116.25ZM106.563 116.25C104.302 116.25 102.391 115.47 100.831 113.909C99.27 112.348 98.4896 110.437 98.4896 108.177C98.4896 105.917 99.27 104.006 100.831 102.445C102.391 100.885 104.302 100.104 106.563 100.104C108.823 100.104 110.734 100.885 112.294 102.445C113.855 104.006 114.635 105.917 114.635 108.177C114.635 110.437 113.855 112.348 112.294 113.909C110.734 115.47 108.823 116.25 106.563 116.25ZM87.1875 135.625C84.9271 135.625 83.0165 134.845 81.4557 133.284C79.895 131.723 79.1146 129.812 79.1146 127.552C79.1146 125.292 79.895 123.381 81.4557 121.82C83.0165 120.26 84.9271 119.479 87.1875 119.479C89.4479 119.479 91.3585 120.26 92.9193 121.82C94.48 123.381 95.2604 125.292 95.2604 127.552C95.2604 129.812 94.48 131.723 92.9193 133.284C91.3585 134.845 89.4479 135.625 87.1875 135.625ZM35.5208 90.4167C25.7257 90.4167 17.3568 86.9453 10.4141 80.0026C3.47135 73.0599 0 64.691 0 54.8958C0 45.9618 2.96007 38.158 8.88021 31.4844C14.8003 24.8108 22.1198 20.8819 30.8385 19.6979C34.283 13.5625 38.9922 8.74566 44.9661 5.2474C50.9401 1.74913 57.4792 0 64.5833 0C74.2708 0 82.6936 3.09462 89.8516 9.28385C97.0096 15.4731 101.342 23.1962 102.849 32.4531C110.276 33.099 116.519 36.1667 121.578 41.6562C126.637 47.1458 129.167 53.7118 129.167 61.3542C129.167 69.4271 126.341 76.2891 120.69 81.9401C115.039 87.5911 108.177 90.4167 100.104 90.4167H35.5208ZM35.5208 77.5H100.104C104.625 77.5 108.446 75.9392 111.568 72.8177C114.689 69.6962 116.25 65.875 116.25 61.3542C116.25 56.8333 114.689 53.0122 111.568 49.8906C108.446 46.7691 104.625 45.2083 100.104 45.2083H90.4167V38.75C90.4167 31.6458 87.8872 25.5642 82.8281 20.5052C77.7691 15.4462 71.6875 12.9167 64.5833 12.9167C59.4167 12.9167 54.7075 14.316 50.4557 17.1146C46.204 19.9132 43.0017 23.6806 40.849 28.4167L39.2344 32.2917H35.1979C29.0625 32.5069 23.8151 34.7943 19.4557 39.1536C15.0964 43.513 12.9167 48.7604 12.9167 54.8958C12.9167 61.1389 15.1233 66.467 19.5365 70.8802C23.9497 75.2934 29.2778 77.5 35.5208 77.5Z" fill="black"/>
</svg>
