<svg width="242" height="237" viewBox="0 0 242 237" fill="none" xmlns="http://www.w3.org/2000/svg">
<path d="M110 47.4V0H132V47.4H110ZM183.15 79.9875L167.75 63.3975L198.825 29.625L214.225 46.5112L183.15 79.9875ZM198 142.2V118.5H242V142.2H198ZM198.825 230.779L167.75 197.302L183.15 180.712L214.5 213.892L198.825 230.779ZM58.85 79.9875L27.775 46.5112L43.45 29.625L74.25 63.3975L58.85 79.9875ZM55 213.3H104.5C109.083 213.3 112.979 211.572 116.188 208.116C119.396 204.659 121 200.462 121 195.525C121 190.587 119.442 186.391 116.325 182.934C113.208 179.478 109.358 177.75 104.775 177.75H90.75L85.25 163.53C82.6833 157.012 78.65 151.828 73.15 147.977C67.65 144.126 61.6 142.2 55 142.2C45.8333 142.2 38.0417 145.656 31.625 152.569C25.2083 159.481 22 167.875 22 177.75C22 187.625 25.2083 196.019 31.625 202.931C38.0417 209.844 45.8333 213.3 55 213.3ZM55 237C39.7833 237 26.8125 231.223 16.0875 219.669C5.3625 208.116 0 194.142 0 177.75C0 161.357 5.3625 147.384 16.0875 135.831C26.8125 124.277 39.7833 118.5 55 118.5C66 118.5 76.0375 121.709 85.1125 128.128C94.1875 134.547 100.925 143.188 105.325 154.05C115.958 154.05 124.896 158.296 132.137 166.789C139.379 175.281 143 185.452 143 197.302C142.633 208.56 138.738 217.991 131.312 225.594C123.888 233.198 114.95 237 104.5 237H55ZM143 197.302C142.083 193.352 141.167 189.501 140.25 185.749C139.333 181.996 138.417 178.145 137.5 174.195C145.75 170.442 152.396 164.616 157.438 156.716C162.479 148.816 165 140.027 165 130.35C165 117.315 160.692 106.156 152.075 96.8737C143.458 87.5912 133.1 82.95 121 82.95C110 82.95 100.375 86.8012 92.125 94.5037C83.875 102.206 79.0167 111.982 77.55 123.832C73.8833 122.845 70.125 121.956 66.275 121.166C62.425 120.376 58.6667 119.487 55 118.5C57.5667 101.12 65.1292 86.9 77.6875 75.84C90.2458 64.78 104.683 59.25 121 59.25C139.333 59.25 154.917 66.1625 167.75 79.9875C180.583 93.8125 187 110.6 187 130.35C187 145.557 182.967 159.234 174.9 171.381C166.833 183.527 156.2 192.167 143 197.302Z" fill="black"/>
</svg>
