<svg width="199" height="199" viewBox="0 0 199 199" fill="none" xmlns="http://www.w3.org/2000/svg">
<path d="M90.4577 36.2082V0.0415039H108.541V36.2082H90.4577ZM150.585 61.0728L138.152 48.6405L163.469 22.6457L176.127 35.53L150.585 61.0728ZM162.791 108.542V90.4582H198.958V108.542H162.791ZM90.4577 198.958V162.792H108.541V198.958H90.4577ZM48.4139 60.6207L22.6452 35.53L35.5296 22.8717L61.0723 48.4144L48.4139 60.6207ZM163.243 176.354L138.152 150.359L150.359 138.153L176.127 163.018L163.243 176.354ZM0.0410156 108.542V90.4582H36.2077V108.542H0.0410156ZM35.5296 176.354L22.8712 163.47L48.1879 138.153L54.7431 144.256L61.2983 150.585L35.5296 176.354ZM99.4994 153.75C84.4299 153.75 71.6209 148.476 61.0723 137.927C50.5237 127.378 45.2494 114.569 45.2494 99.4998C45.2494 84.4304 50.5237 71.6214 61.0723 61.0728C71.6209 50.5241 84.4299 45.2498 99.4994 45.2498C114.569 45.2498 127.378 50.5241 137.926 61.0728C148.475 71.6214 153.749 84.4304 153.749 99.4998C153.749 114.569 148.475 127.378 137.926 137.927C127.378 148.476 114.569 153.75 99.4994 153.75ZM99.4994 135.667C109.445 135.667 117.959 132.125 125.042 125.043C132.125 117.96 135.666 109.446 135.666 99.4998C135.666 89.554 132.125 81.0398 125.042 73.9571C117.959 66.8745 109.445 63.3332 99.4994 63.3332C89.5535 63.3332 81.0393 66.8745 73.9566 73.9571C66.874 81.0398 63.3327 89.554 63.3327 99.4998C63.3327 109.446 66.874 117.96 73.9566 125.043C81.0393 132.125 89.5535 135.667 99.4994 135.667Z" fill="black"/>
</svg>
