<svg width="182" height="176" viewBox="0 0 182 176" fill="none" xmlns="http://www.w3.org/2000/svg">
<path d="M0 99V82.5H33V99H0ZM44.1375 55.6875L20.625 32.3812L32.3812 20.8312L55.6875 44.1375L44.1375 55.6875ZM41.25 142.312C38.3625 142.312 35.9219 141.316 33.9281 139.322C31.9344 137.328 30.9375 134.887 30.9375 132C30.9375 129.112 31.9344 126.672 33.9281 124.678C35.9219 122.684 38.3625 121.687 41.25 121.687C44.1375 121.687 46.5781 122.684 48.5719 124.678C50.5656 126.672 51.5625 129.112 51.5625 132C51.5625 134.887 50.5656 137.328 48.5719 139.322C46.5781 141.316 44.1375 142.312 41.25 142.312ZM49.5 99V90.75C49.5 79.3375 53.5219 69.6094 61.5656 61.5656C69.6094 53.5219 79.3375 49.5 90.75 49.5C102.162 49.5 111.891 53.5219 119.934 61.5656C127.978 69.6094 132 79.3375 132 90.75V99H115.5V90.75C115.5 83.875 113.094 78.0312 108.281 73.2187C103.469 68.4062 97.625 66 90.75 66C83.875 66 78.0312 68.4062 73.2187 73.2187C68.4062 78.0312 66 83.875 66 90.75V99H49.5ZM66 175.312C63.1125 175.312 60.6719 174.316 58.6781 172.322C56.6844 170.328 55.6875 167.887 55.6875 165C55.6875 162.112 56.6844 159.672 58.6781 157.678C60.6719 155.684 63.1125 154.687 66 154.687C68.8875 154.687 71.3281 155.684 73.3219 157.678C75.3156 159.672 76.3125 162.112 76.3125 165C76.3125 167.887 75.3156 170.328 73.3219 172.322C71.3281 174.316 68.8875 175.312 66 175.312ZM90.75 142.312C87.8625 142.312 85.4219 141.316 83.4281 139.322C81.4344 137.328 80.4375 134.887 80.4375 132C80.4375 129.112 81.4344 126.672 83.4281 124.678C85.4219 122.684 87.8625 121.687 90.75 121.687C93.6375 121.687 96.0781 122.684 98.0719 124.678C100.066 126.672 101.062 129.112 101.062 132C101.062 134.887 100.066 137.328 98.0719 139.322C96.0781 141.316 93.6375 142.312 90.75 142.312ZM82.5 33V0H99V33H82.5ZM115.5 175.312C112.612 175.312 110.172 174.316 108.178 172.322C106.184 170.328 105.187 167.887 105.187 165C105.187 162.112 106.184 159.672 108.178 157.678C110.172 155.684 112.612 154.687 115.5 154.687C118.387 154.687 120.828 155.684 122.822 157.678C124.816 159.672 125.812 162.112 125.812 165C125.812 167.887 124.816 170.328 122.822 172.322C120.828 174.316 118.387 175.312 115.5 175.312ZM137.362 55.6875L125.606 44.1375L149.119 20.8312L160.669 32.3812L137.362 55.6875ZM140.25 142.312C137.362 142.312 134.922 141.316 132.928 139.322C130.934 137.328 129.937 134.887 129.937 132C129.937 129.112 130.934 126.672 132.928 124.678C134.922 122.684 137.362 121.687 140.25 121.687C143.137 121.687 145.578 122.684 147.572 124.678C149.566 126.672 150.562 129.112 150.562 132C150.562 134.887 149.566 137.328 147.572 139.322C145.578 141.316 143.137 142.312 140.25 142.312ZM148.5 99V82.5H181.5V99H148.5Z" fill="black"/>
</svg>
