<svg width="189" height="167" viewBox="0 0 189 167" fill="none" xmlns="http://www.w3.org/2000/svg">
<path d="M153.962 57.4417L140.779 43.7875L161.025 24.0125L174.208 37.1958L153.962 57.4417ZM0 150.667V131.833H75.666L95.166 146L114.166 131.833H188.333V150.667H114.166L95.166 166.5L75.666 150.667H0ZM84.75 28.25V0H103.583V28.25H84.75ZM34.3708 56.9708L14.5958 36.725L27.7792 23.5417L48.025 43.7875L34.3708 56.9708ZM51.0854 94.1667H137.248C133.638 85.6917 127.988 78.8646 120.298 73.6854C112.608 68.5063 103.897 65.9167 94.1667 65.9167C84.4361 65.9167 75.7257 68.5063 68.0354 73.6854C60.3451 78.8646 54.6951 85.6917 51.0854 94.1667ZM28.25 113C28.25 94.6375 34.6455 79.0608 47.4365 66.2698C60.2274 53.4788 75.8042 47.0833 94.1667 47.0833C112.529 47.0833 128.106 53.4788 140.897 66.2698C153.688 79.0608 160.083 94.6375 160.083 113H28.25Z" fill="#EC5500"/>
</svg>
