<svg width="180" height="199" viewBox="0 0 180 199" fill="none" xmlns="http://www.w3.org/2000/svg">
<path d="M85.95 199L107.1 174.803L89.1 165.758L115.2 135.682H139.05L117.9 159.878L135.9 168.924L109.8 199H85.95ZM31.95 199L53.1 174.803L35.1 165.758L61.2 135.682H85.05L63.9 159.878L81.9 168.924L55.8 199H31.95ZM49.5 126.636C35.85 126.636 24.1875 121.774 14.5125 112.051C4.8375 102.327 0 90.6053 0 76.8864C0 64.3735 4.125 53.4436 12.375 44.0966C20.625 34.7496 30.825 29.247 42.975 27.5886C47.775 18.9955 54.3375 12.2491 62.6625 7.34943C70.9875 2.44981 80.1 0 90 0C103.5 0 115.237 4.33428 125.212 13.0028C135.188 21.6714 141.225 32.4883 143.325 45.4534C153.675 46.358 162.375 50.6545 169.425 58.3432C176.475 66.0318 180 75.228 180 85.9318C180 97.2386 176.062 106.849 168.188 114.764C160.312 122.679 150.75 126.636 139.5 126.636H49.5ZM49.5 108.545H139.5C145.8 108.545 151.125 106.359 155.475 101.987C159.825 97.6155 162 92.2636 162 85.9318C162 79.6 159.825 74.2481 155.475 69.8761C151.125 65.5042 145.8 63.3182 139.5 63.3182H126V54.2727C126 44.3227 122.475 35.8049 115.425 28.7193C108.375 21.6337 99.9 18.0909 90 18.0909C82.8 18.0909 76.2375 20.0508 70.3125 23.9705C64.3875 27.8902 59.925 33.1667 56.925 39.8L54.675 45.2273H49.05C40.5 45.5288 33.1875 48.7324 27.1125 54.8381C21.0375 60.9437 18 68.2932 18 76.8864C18 85.6303 21.075 93.0928 27.225 99.2739C33.375 105.455 40.8 108.545 49.5 108.545Z" fill="black"/>
</svg>
