<svg width="220" height="190" viewBox="0 0 220 190" fill="none" xmlns="http://www.w3.org/2000/svg">
<path d="M0 35.625V0H22V35.625H0ZM0 190V154.375H22V190H0ZM57.75 61.4531L42.075 44.5312L65.45 19.2969L81.125 36.2188L57.75 61.4531ZM65.45 170.703L42.075 145.469L57.75 128.547L81.125 153.781L65.45 170.703ZM66 106.875V83.125H132L112.2 54.625L129.8 40.375L162.8 87.875C165.55 91.8333 165.917 95.9896 163.9 100.344C161.883 104.698 158.583 106.875 154 106.875H66ZM203.5 178.125C198.917 178.125 195.021 176.393 191.812 172.93C188.604 169.466 187 165.26 187 160.312V29.6875C187 24.7396 188.604 20.5339 191.812 17.0703C195.021 13.6068 198.917 11.875 203.5 11.875C208.083 11.875 211.979 13.6068 215.188 17.0703C218.396 20.5339 220 24.7396 220 29.6875V160.312C220 165.26 218.396 169.466 215.188 172.93C211.979 176.393 208.083 178.125 203.5 178.125ZM0 142.5V118.75C6.05 118.75 11.2292 116.424 15.5375 111.773C19.8458 107.122 22 101.531 22 95C22 88.4688 19.8458 82.8776 15.5375 78.2266C11.2292 73.5755 6.05 71.25 0 71.25V47.5C12.1 47.5 22.4583 52.151 31.075 61.4531C39.6917 70.7552 44 81.9375 44 95C44 108.062 39.6917 119.245 31.075 128.547C22.4583 137.849 12.1 142.5 0 142.5Z" fill="white"/>
</svg>
