<svg width="241" height="205" viewBox="0 0 241 205" fill="none" xmlns="http://www.w3.org/2000/svg">
<path d="M114.475 205C104.433 205 95.8979 201.483 88.8688 194.449C81.8396 187.414 78.325 178.873 78.325 168.824H102.425C102.425 172.24 103.58 175.104 105.889 177.415C108.199 179.727 111.061 180.882 114.475 180.882C117.889 180.882 120.751 179.727 123.061 177.415C125.37 175.104 126.525 172.24 126.525 168.824C126.525 165.407 125.37 162.543 123.061 160.232C120.751 157.92 117.889 156.765 114.475 156.765H0V132.647H114.475C124.517 132.647 133.052 136.164 140.081 143.199C147.11 150.233 150.625 158.775 150.625 168.824C150.625 178.873 147.11 187.414 140.081 194.449C133.052 201.483 124.517 205 114.475 205ZM0 84.4118V60.2941H162.675C167.897 60.2941 172.215 58.5858 175.629 55.1691C179.043 51.7524 180.75 47.4314 180.75 42.2059C180.75 36.9804 179.043 32.6593 175.629 29.2426C172.215 25.826 167.897 24.1176 162.675 24.1176C157.453 24.1176 153.135 25.826 149.721 29.2426C146.307 32.6593 144.6 36.9804 144.6 42.2059H120.5C120.5 30.348 124.567 20.3493 132.701 12.2096C140.834 4.06985 150.826 0 162.675 0C174.524 0 184.516 4.06985 192.649 12.2096C200.783 20.3493 204.85 30.348 204.85 42.2059C204.85 54.0637 200.783 64.0625 192.649 72.2022C184.516 80.3419 174.524 84.4118 162.675 84.4118H0ZM198.825 180.882V156.765C204.047 156.765 208.365 155.056 211.779 151.64C215.193 148.223 216.9 143.902 216.9 138.676C216.9 133.451 215.193 129.13 211.779 125.713C208.365 122.297 204.047 120.588 198.825 120.588H0V96.4706H198.825C210.674 96.4706 220.666 100.54 228.799 108.68C236.933 116.82 241 126.819 241 138.676C241 150.534 236.933 160.533 228.799 168.673C220.666 176.812 210.674 180.882 198.825 180.882Z" fill="#DADADA"/>
</svg>
