<svg width="139" height="118" viewBox="0 0 139 118" fill="none" xmlns="http://www.w3.org/2000/svg">
<path d="M66.0625 117.5C60.3333 117.5 55.4635 115.495 51.4531 111.484C47.4427 107.474 45.4375 102.604 45.4375 96.875H59.1875C59.1875 98.8229 59.8464 100.456 61.1641 101.773C62.4818 103.091 64.1146 103.75 66.0625 103.75C68.0104 103.75 69.6432 103.091 70.9609 101.773C72.2786 100.456 72.9375 98.8229 72.9375 96.875C72.9375 94.9271 72.2786 93.2943 70.9609 91.9766C69.6432 90.6589 68.0104 90 66.0625 90H0.75V76.25H66.0625C71.7917 76.25 76.6615 78.2552 80.6719 82.2656C84.6823 86.276 86.6875 91.1458 86.6875 96.875C86.6875 102.604 84.6823 107.474 80.6719 111.484C76.6615 115.495 71.7917 117.5 66.0625 117.5ZM0.75 48.75V35H93.5625C96.5417 35 99.0052 34.026 100.953 32.0781C102.901 30.1302 103.875 27.6667 103.875 24.6875C103.875 21.7083 102.901 19.2448 100.953 17.2969C99.0052 15.349 96.5417 14.375 93.5625 14.375C90.5833 14.375 88.1198 15.349 86.1719 17.2969C84.224 19.2448 83.25 21.7083 83.25 24.6875H69.5C69.5 17.9271 71.8203 12.2266 76.4609 7.58594C81.1016 2.94531 86.8021 0.625 93.5625 0.625C100.323 0.625 106.023 2.94531 110.664 7.58594C115.305 12.2266 117.625 17.9271 117.625 24.6875C117.625 31.4479 115.305 37.1484 110.664 41.7891C106.023 46.4297 100.323 48.75 93.5625 48.75H0.75ZM114.188 103.75V90C117.167 90 119.63 89.026 121.578 87.0781C123.526 85.1302 124.5 82.6667 124.5 79.6875C124.5 76.7083 123.526 74.2448 121.578 72.2969C119.63 70.349 117.167 69.375 114.188 69.375H0.75V55.625H114.188C120.948 55.625 126.648 57.9453 131.289 62.5859C135.93 67.2266 138.25 72.9271 138.25 79.6875C138.25 86.4479 135.93 92.1484 131.289 96.7891C126.648 101.43 120.948 103.75 114.188 103.75Z" fill="white"/>
</svg>
